#usda 1.0
(
    defaultPrim = "root"
    metersPerUnit = 1
    upAxis = "Y"
)

def Xform "root"
{
    def Mesh "paint_cube"
    {
        int[] faceVertexCounts = [4, 4, 4, 4, 4, 4]
        int[] faceVertexIndices = [
            0, 1, 2, 3,
            4, 7, 6, 5,
            0, 4, 5, 1,
            3, 2, 6, 7,
            0, 3, 7, 4,
            1, 5, 6, 2
        ]
        normal3f[] normals = [
            ( 0,  0,  1), ( 0,  0,  1), ( 0,  0,  1), ( 0,  0,  1),
            ( 0,  0, -1), ( 0,  0, -1), ( 0,  0, -1), ( 0,  0, -1),
            ( 0, -1,  0), ( 0, -1,  0), ( 0, -1,  0), ( 0, -1,  0),
            ( 0,  1,  0), ( 0,  1,  0), ( 0,  1,  0), ( 0,  1,  0),
            (-1,  0,  0), (-1,  0,  0), (-1,  0,  0), (-1,  0,  0),
            ( 1,  0,  0), ( 1,  0,  0), ( 1,  0,  0), ( 1,  0,  0)
        ] (
            interpolation = "faceVarying"
        )
        point3f[] points = [
            (-0.5, -0.5,  0.5),
            ( 0.5, -0.5,  0.5),
            ( 0.5,  0.5,  0.5),
            (-0.5,  0.5,  0.5),
            (-0.5, -0.5, -0.5),
            ( 0.5, -0.5, -0.5),
            ( 0.5,  0.5, -0.5),
            (-0.5,  0.5, -0.5)
        ]
        texCoord2f[] primvars:st = [
            (0, 0), (1, 0), (1, 1), (0, 1)
        ] (
            interpolation = "faceVarying"
        )
        int[] primvars:st:indices = [
            0, 1, 2, 3,
            0, 1, 2, 3,
            0, 1, 2, 3,
            0, 1, 2, 3,
            0, 1, 2, 3,
            0, 1, 2, 3
        ]
        uniform token subdivisionScheme = "none"
    }
}
